# xmcd
#
# Track frame offsets:
#	150
#	18273
#	35977
#	55589
#	75728
#	98214
#	117789
#	134911
#	156657
#	174206
#	198879
#	218785
#	236348
#	255946
#	277319
#	297360
#	316349
#	334262
#
# Disc length: 4672 seconds
#
# Revision: 0
# Processed by: cddbd v1.5.1PL2 Copyright (c) Steve Scherf et al.
# Submitted via: audiograbber 1.83.01
#
DISCID=09123e12
DTITLE=Mariah Carey - Mariah Carey
DYEAR=1900
DGENRE=
TTITLE0=Just To Hold You Once Again
TTITLE1=Dreamlover
TTITLE2=Hero
TTITLE3=Anytime You Need A Friend
TTITLE4=Music Box
TTITLE5=Now That I Know
TTITLE6=Never Forget You
TTITLE7=I've Been Thinking About You
TTITLE8=All I've Ever Wanted
TTITLE9=Everything Fades Away
TTITLE10=When ever You call
TTITLE11=My All 
TTITLE12=Always be my Baby
TTITLE13=One sweet Day
TTITLE14=I'll be there 
TTITLE15=Emotions
TTITLE16=I still believe
TTITLE17=Withaout You
EXTD=
EXTT0=
EXTT1=
EXTT2=
EXTT3=
EXTT4=
EXTT5=
EXTT6=
EXTT7=
EXTT8=
EXTT9=
EXTT10=
EXTT11=
EXTT12=
EXTT13=
EXTT14=
EXTT15=
EXTT16=
EXTT17=
PLAYORDER=
